<svg width="8" height="13" viewBox="0 0 8 13" fill="none" xmlns="http://www.w3.org/2000/svg">
<path d="M1.39822 13C1.01274 13 0.683333 12.8606 0.41 12.5818C0.136667 12.303 0 11.9678 0 11.5763C0 11.1848 0.13726 10.8503 0.41178 10.5727C0.686286 10.2951 1.01629 10.1562 1.40178 10.1562C1.78726 10.1562 2.11667 10.2957 2.39 10.5745C2.66333 10.8533 2.8 11.1884 2.8 11.5799C2.8 11.9714 2.66274 12.306 2.38822 12.5836C2.11371 12.8612 1.78371 13 1.39822 13ZM6.59822 13C6.21274 13 5.88333 12.8606 5.61 12.5818C5.33667 12.303 5.2 11.9678 5.2 11.5763C5.2 11.1848 5.33726 10.8503 5.61178 10.5727C5.88629 10.2951 6.21629 10.1562 6.60178 10.1562C6.98726 10.1562 7.31667 10.2957 7.59 10.5745C7.86333 10.8533 8 11.1884 8 11.5799C8 11.9714 7.86274 12.306 7.58822 12.5836C7.31371 12.8612 6.98371 13 6.59822 13ZM1.39822 7.92187C1.01274 7.92187 0.683333 7.78247 0.41 7.50366C0.136667 7.22487 0 6.88971 0 6.49819C0 6.10669 0.13726 5.77214 0.41178 5.49453C0.686286 5.21693 1.01629 5.07812 1.40178 5.07812C1.78726 5.07812 2.11667 5.21753 2.39 5.49634C2.66333 5.77513 2.8 6.11029 2.8 6.50181C2.8 6.89331 2.66274 7.22786 2.38822 7.50547C2.11371 7.78307 1.78371 7.92187 1.39822 7.92187ZM6.59822 7.92187C6.21274 7.92187 5.88333 7.78247 5.61 7.50366C5.33667 7.22487 5.2 6.88971 5.2 6.49819C5.2 6.10669 5.33726 5.77214 5.61178 5.49453C5.88629 5.21693 6.21629 5.07812 6.60178 5.07812C6.98726 5.07812 7.31667 5.21753 7.59 5.49634C7.86333 5.77513 8 6.11029 8 6.50181C8 6.89331 7.86274 7.22786 7.58822 7.50547C7.31371 7.78307 6.98371 7.92187 6.59822 7.92187ZM1.39822 2.84375C1.01274 2.84375 0.683333 2.70435 0.41 2.42554C0.136667 2.14674 0 1.81158 0 1.42007C0 1.02856 0.13726 0.69401 0.41178 0.416406C0.686286 0.138802 1.01629 0 1.40178 0C1.78726 0 2.11667 0.139404 2.39 0.418214C2.66333 0.69701 2.8 1.03217 2.8 1.42368C2.8 1.81519 2.66274 2.14974 2.38822 2.42734C2.11371 2.70495 1.78371 2.84375 1.39822 2.84375ZM6.59822 2.84375C6.21274 2.84375 5.88333 2.70435 5.61 2.42554C5.33667 2.14674 5.2 1.81158 5.2 1.42007C5.2 1.02856 5.33726 0.69401 5.61178 0.416406C5.88629 0.138802 6.21629 0 6.60178 0C6.98726 0 7.31667 0.139404 7.59 0.418214C7.86333 0.69701 8 1.03217 8 1.42368C8 1.81519 7.86274 2.14974 7.58822 2.42734C7.31371 2.70495 6.98371 2.84375 6.59822 2.84375Z" fill="#AEAEAE"/>
</svg>
