<svg xmlns="http://www.w3.org/2000/svg" version="1.1" xmlns:xlink="http://www.w3.org/1999/xlink" xmlns:svgjs="http://svgjs.dev/svgjs" width="1000" height="673" viewBox="0 0 1000 673"><g transform="matrix(1,0,0,1,0.5206374050493991,0.2724696356274876)"><svg viewBox="0 0 367 247" data-background-color="#7fdbff" preserveAspectRatio="xMidYMid meet" height="673" width="1000" xmlns="http://www.w3.org/2000/svg" xmlns:xlink="http://www.w3.org/1999/xlink"><g id="tight-bounds" transform="matrix(1,0,0,1,-0.1910739276531217,-0.09999999999999432)"><svg viewBox="0 0 367.3821466623018 247.2" height="247.2" width="367.3821466623018"><g><svg viewBox="0 0 395.52 266.1330848226347" height="247.2" width="367.3821466623018"><g transform="matrix(1,0,0,1,0,197.3342691305548)"><svg viewBox="0 0 395.52 68.79881569207993" height="68.79881569207993" width="395.52"><g id="textblocktransform"><svg viewBox="0 0 395.52 68.79881569207993" height="68.79881569207993" width="395.52" id="textblock"><g><svg viewBox="0 0 395.52 68.79881569207993" height="68.79881569207993" width="395.52"><g transform="matrix(1,0,0,1,0,0)"><svg width="395.52" viewBox="2.799999952316284 -35.25 202.63999938964844 35.25" height="68.79881569207993" data-palette-color="#f6f6f6"><path d="M30.65-23.5Q30.65-20.3 29.18-17.68 27.7-15.05 24.73-13.48 21.75-11.9 17.45-11.9L17.45-11.9 12.6-11.9 12.6 0 2.8 0 2.8-35.25 17.45-35.25Q21.7-35.25 24.68-33.75 27.65-32.25 29.15-29.6 30.65-26.95 30.65-23.5L30.65-23.5ZM16.5-19.7Q20.65-19.7 20.65-23.5L20.65-23.5Q20.65-27.35 16.5-27.35L16.5-27.35 12.6-27.35 12.6-19.7 16.5-19.7ZM44.4-35.25L44.4-7.5 55.35-7.5 55.35 0 34.6 0 34.6-35.25 44.4-35.25ZM83.34 0L81.44-5.75 68.94-5.75 67.05 0 56.74 0 69.59-35.25 80.89-35.25 93.69 0 83.34 0ZM71.44-13.25L79-13.25 75.19-24.65 71.44-13.25ZM129.54-35.25L129.54 0 119.74 0 106.69-19.7 106.69 0 96.89 0 96.89-35.25 106.69-35.25 119.74-15.3 119.74-35.25 129.54-35.25ZM167.79-35.25L167.79 0 157.99 0 144.94-19.7 144.94 0 135.14 0 135.14-35.25 144.94-35.25 157.99-15.3 157.99-35.25 167.79-35.25ZM194.39-35.25L205.44-35.25 193.04-11.2 193.04 0 183.19 0 183.19-11.2 170.79-35.25 181.99-35.25 188.19-21.65 194.39-35.25Z" opacity="1" transform="matrix(1,0,0,1,0,0)" fill="#f6f6f6" class="wordmark-text-0" data-fill-palette-color="primary" id="text-0"></path></svg></g></svg></g></svg></g></svg></g><g transform="matrix(1,0,0,1,115.33461464804606,0)"><svg viewBox="0 0 164.85077070390787 164.85077070390787" height="164.85077070390787" width="164.85077070390787"><g><svg></svg></g><g id="icon-0"><svg viewBox="0 0 164.85077070390787 164.85077070390787" height="164.85077070390787" width="164.85077070390787"><g><path d="M0 82.425c0-45.522 36.903-82.425 82.425-82.425 45.522 0 82.425 36.903 82.426 82.425 0 45.522-36.903 82.425-82.426 82.426-45.522 0-82.425-36.903-82.425-82.426zM82.425 158.646c42.096 0 76.221-34.125 76.221-76.221 0-42.096-34.125-76.221-76.221-76.221-42.096 0-76.221 34.125-76.221 76.221 0 42.096 34.125 76.221 76.221 76.221z" data-fill-palette-color="tertiary" fill="#f6f6f6" stroke="transparent"></path></g><g transform="matrix(1,0,0,1,49.024399964013746,37.17092672190712)"><svg viewBox="0 0 66.80197077588038 90.50891726009363" height="90.50891726009363" width="66.80197077588038"><g><svg xmlns="http://www.w3.org/2000/svg" xmlns:xlink="http://www.w3.org/1999/xlink" version="1.1" x="0" y="0" viewBox="33.73505401611328 20.577999114990234 74.52593994140625 100.9739990234375" enable-background="new 0 0 141.73 141.73" xml:space="preserve" height="90.50891726009363" width="66.80197077588038" class="icon-s-0" data-fill-palette-color="accent" id="s-0"><path d="M107.948 109.25l-7.6-33.028c-1.534-6.671-8.318-12.143-15.163-12.294L74.526 99.162l-1.908-27.48 1.6-4.973-1.609-2.788h-3.22l-1.61 2.788 1.6 4.974-1.909 27.48L56.811 63.928c-6.845 0.151-13.629 5.623-15.164 12.294l-7.599 33.028c-1.557 6.766 2.85 12.302 9.792 12.302h54.316C105.099 121.552 109.505 116.016 107.948 109.25z" fill="#f6f6f6" data-fill-palette-color="accent"></path><g fill="#f6f6f6" data-fill-palette-color="accent"><path d="M70.998 20.578c-10.603 0-19.198 8.595-19.198 19.197 0 10.603 8.595 19.198 19.198 19.198s19.198-8.595 19.198-19.198C90.196 29.172 81.601 20.578 70.998 20.578zM77.483 38.99l-2.404-3.588-5.702 15.925-4.702-9.726-5.775 6.22-2.198-2.041 8.763-9.439 3.499 7.238 5.296-14.791 4.117 6.146 5.483-3.334 1.559 2.563L77.483 38.99z" fill="#f6f6f6" data-fill-palette-color="accent"></path></g></svg></g></svg></g></svg></g></svg></g><g></g></svg></g><defs></defs></svg><rect width="367.3821466623018" height="247.2" fill="none" stroke="none" visibility="hidden"></rect></g></svg></g></svg>